<?xml version="1.0" encoding="UTF-8"?>
<svg id="Layer_1" xmlns="http://www.w3.org/2000/svg" version="1.1" viewBox="0 0 672 589.7">
  <!-- Generator: Adobe Illustrator 29.0.1, SVG Export Plug-In . SVG Version: 2.1.0 Build 192)  -->
  <defs>
    <style>
      .st0 {
        fill: #069;
      }

      .st0, .st1 {
        fill-rule: evenodd;
      }

      .st1 {
        fill: #339;
      }
    </style>
  </defs>
  <polygon class="st0" points="491.8 399.2 516.5 357.5 634.2 357.5 670.5 294.8 597.8 169.8 495.5 169.8 460.2 107.8 420.5 107.8 420.5 65.8 485.2 65.8 520.5 128.2 573.5 128.2 500.5 3.2 358.2 3.2 358.2 169.8 415.8 169.8 440.2 211.5 358.2 211.5 358.2 294.8 433.5 294.8 468.5 232.5 562.2 232.5 586.2 274.2 492.8 274.2 457.8 336.5 358.2 336.5 358.2 482.5 471.5 482.5 447.5 524.2 358.2 524.2 358.2 586.5 500.5 586.5 609.8 399.2 540.2 399.2 515.8 440.8 420.5 440.8 420.5 399.2 491.8 399.2"/>
  <polygon class="st1" points="182.5 399.2 157.8 357.5 40.2 357.5 3.8 294.8 76.5 169.8 178.8 169.8 214.2 107.8 253.8 107.8 253.8 65.8 189.2 65.8 153.8 128.2 100.8 128.2 173.8 3.2 316.5 3.2 316.5 169.8 258.5 169.8 234.2 211.5 316.5 211.5 316.5 294.8 240.8 294.8 205.8 232.5 112.2 232.5 88.2 274.2 181.5 274.2 216.5 336.5 316.5 336.5 316.5 482.5 202.8 482.5 226.8 524.2 316.5 524.2 316.5 586.5 173.8 586.5 64.5 399.2 134.2 399.2 158.5 440.8 253.8 440.8 253.8 399.2 182.5 399.2"/>
</svg>