<?xml version="1.0" encoding="UTF-8"?>
<svg id="Layer_2" data-name="Layer 2" xmlns="http://www.w3.org/2000/svg" xmlns:xlink="http://www.w3.org/1999/xlink" viewBox="0 0 600 150">
  <defs>
    <style>
      .cls-1 {
        fill: url(#linear-gradient-2);
      }

      .cls-2 {
        fill: url(#linear-gradient);
      }
    </style>
    <linearGradient id="linear-gradient" x1="600" y1="77" x2="0" y2="77" gradientTransform="translate(0 152) scale(1 -1)" gradientUnits="userSpaceOnUse">
      <stop offset="0" stop-color="#e6eef3"/>
      <stop offset=".5" stop-color="#0099da"/>
      <stop offset="1" stop-color="#1e489e"/>
    </linearGradient>
    <linearGradient id="linear-gradient-2" x1="1.42" y1="75" x2="599" y2="75" gradientTransform="matrix(1,0,0,1,0,0)" xlink:href="#linear-gradient"/>
  </defs>
  <g id="Layer_1-2" data-name="Layer 1">
    <rect class="cls-2" width="600" height="150"/>
    <path class="cls-1" d="M596.15,28.22c1.03-2.13,1.81-5.41,1.84-7.34,0-1.93-.91-1.78-2.01.35-1.03,2.11-1.86,5.39-1.82,7.34.08,1.93.97,1.78,2-.35ZM596.02,11.48c-1.25,2.33-2.3,5.96-2.3,8.12.06,2.13,1.08,1.96,2.26-.38,1.27-2.36,2.28-5.97,2.32-8.11,0-2.12-.97-1.97-2.28.37ZM596.57,36.34c.87-1.92,1.48-4.89,1.44-6.63-.06-1.75-.84-1.61-1.77.32-.93,1.92-1.6,4.9-1.43,6.65.08,1.76.89,1.6,1.77-.33h-.02ZM593.81.17c.23.49.65.49,1.22,0h-1.22ZM596.74.17c-.11.16-.23.34-.32.53-1.52,2.58-2.87,6.6-2.91,8.97,0,2.36,1.08,2.19,2.57-.42,1.41-2.6,2.77-6.6,2.93-8.95v-.13s-2.26,0-2.26,0ZM597.12,43.68c.8-1.75,1.24-4.42,1.12-6-.11-1.57-.84-1.45-1.58.29-.84,1.74-1.25,4.42-1.1,6.01.15,1.58.84,1.45,1.56-.3h0ZM569.12,36.95c1.52-3.31,2.58-8.41,2.38-11.37-.19-2.97-1.69-2.72-3.31.56-1.6,3.29-2.68,8.42-2.34,11.4.3,3,1.77,2.73,3.27-.59ZM579.2,89c.48-2.03.38-5.12-.06-6.93-.44-1.79-1.31-1.63-1.73.39-.44,2.02-.49,5.15.08,6.95.46,1.81,1.31,1.63,1.71-.4h0ZM581.46,96.61c.34-1.84.23-4.64-.25-6.27-.48-1.62-1.16-1.48-1.52.36-.38,1.84-.23,4.64.27,6.28.51,1.63,1.18,1.47,1.5-.37h0ZM569.43,39.76c-1.29,3-2.05,7.63-1.6,10.34.42,2.7,1.67,2.46,2.87-.55,1.24-3.01,1.84-7.6,1.63-10.31-.32-2.68-1.58-2.46-2.91.53h0ZM564.92.17c-1.1,2.98-1.82,6.05-1.75,8.22.04,3.65,1.98,3.33,4.3-.68,1.24-2.14,2.39-4.89,3.23-7.53h-5.78ZM576.92,80.59c.55-2.23.65-5.67.21-7.67-.53-1.98-1.35-1.8-1.96.42-.7,2.24-.76,5.68-.19,7.68.49,2.01,1.37,1.81,1.94-.43h0ZM572.6,60.94c.97-2.73,1.43-6.91,1.03-9.35-.38-2.43-1.52-2.22-2.55.49-1.1,2.73-1.44,6.91-1.01,9.37.57,2.44,1.63,2.22,2.51-.51h.02ZM575.28,62.79c-.4-2.2-1.48-2.01-2.24.45-.86,2.46-1.06,6.27-.55,8.48.44,2.24,1.5,2.01,2.2-.46.7-2.48.95-6.25.57-8.47h.02ZM567.98,23.05c1.82-3.65,3.4-9.26,3.33-12.53.02-3.29-1.71-3.01-3.78.61-2.01,3.63-3.46,9.25-3.27,12.55.19,3.31,1.86,3.02,3.74-.63h-.02ZM529.27.17c-.13,1.08-.19,2.09-.15,2.98.23,5.03,3.15,4.57,6.54-1,.38-.63.76-1.29,1.14-1.99h-7.53ZM547.17,76.07c1.08-3.85,1.25-9.7.53-13.11-.8-3.39-2.53-3.07-3.72.74-1.25,3.82-1.43,9.7-.48,13.13,1.01,3.43,2.58,3.09,3.65-.76h.02ZM543.16,60.16c1.43-4.22,2.11-10.64,1.54-14.42-.76-3.71-2.64-3.38-4.3.79-1.73,4.19-2.28,10.64-1.46,14.44.95,3.77,2.66,3.43,4.22-.82h0ZM537.62,27.63c-2.26,4.6-3.46,11.7-2.74,15.87.7,4.18,2.85,3.77,4.87-.88,1.9-4.62,3.21-11.7,2.83-15.83-.42-4.12-2.66-3.75-4.96.83h0ZM537.14,23.35c2.6-5.07,4.58-12.82,4.47-17.37-.11-4.53-2.76-4.12-5.74.89-2.95,5.03-4.85,12.82-4.35,17.41.57,4.58,3.02,4.15,5.63-.93ZM551.55,90.49c.72-3.49.63-8.82-.23-11.9-.82-3.1-2.36-2.78-3.23.69-.89,3.47-.78,8.82.3,11.92,1.08,3.12,2.47,2.78,3.17-.71h-.02ZM576.88,145.88c-.89-1.68-1.5-1.51-1.43.43.09,1,.34,2.28.68,3.52h2.15c-.36-1.44-.87-2.92-1.41-3.95ZM556.14,103.57c.42-3.17.15-8.01-.82-10.8-.95-2.79-2.19-2.51-2.81.63-.63,3.16-.19,8,.87,10.82,1.08,2.81,2.32,2.53,2.76-.66h0ZM561.85,117.79c-.17,2.6.42,6.59,1.56,8.88,1.05,2.32,2.03,2.05,2.11-.56.09-2.6-.55-6.58-1.52-8.87-.97-2.28-1.98-2.05-2.15.54h0ZM574.52,144.55c-.08-2.14-.87-5.41-1.82-7.27-.95-1.87-1.63-1.66-1.63.47.02,2.14.86,5.4,1.86,7.28s1.77,1.66,1.62-.48h-.02ZM560.84,115.4c.23-2.88-.32-7.25-1.24-9.79-.99-2.54-2.05-2.28-2.45.59-.42,2.87.21,7.25,1.27,9.81,1.1,2.54,2.17,2.28,2.41-.61ZM570.07,135.8c0-2.37-.74-5.97-1.73-8.03-.97-2.07-1.81-1.85-1.86.51-.06,2.35.7,5.96,1.75,8.04.95,2.1,1.86,1.85,1.84-.52h0ZM517.41,81.66c-1.27,4.86-.72,12.3,1.05,16.62,1.73,4.35,3.78,3.87,4.71-1.04.89-4.89.51-12.3-.93-16.58-1.43-4.27-3.63-3.83-4.83,1ZM524.81,101.29c-.72,4.43.3,11.2,2.13,15.14,1.92,3.93,3.63,3.5,4.03-.97.42-4.46-.49-11.19-2.01-15.11-1.56-3.88-3.48-3.47-4.14.94ZM505.31,36.42c-2.68,5.8-3.63,14.74-2.22,19.96,1.43,5.23,4.28,4.69,6.42-1.18,2.22-5.85,3.27-14.74,2.38-19.9-1.01-5.12-3.93-4.64-6.58,1.13h0ZM510.8,60.08c-1.92,5.31-2.01,13.49-.38,18.23,1.62,4.77,4.05,4.26,5.49-1.11,1.5-5.36,1.75-13.47.53-18.19-1.24-4.67-3.8-4.21-5.64,1.06h0ZM504.32,31.06c3.12-6.39,5.23-16.09,4.73-21.75-.63-5.59-4.05-5.09-7.72,1.2-3.72,6.33-5.68,16.11-4.56,21.82,1.06,5.74,4.43,5.15,7.53-1.27h.02ZM492.18.17c-.34,2.15-.46,4.15-.29,5.83.72,6.25,4.56,5.65,8.84-1.35.84-1.37,1.65-2.89,2.41-4.48,0,0-10.97,0-10.97,0ZM539.06,132c0-4.05-1.14-10.2-2.81-13.74-1.65-3.53-3.21-3.15-3.55.87-.29,4.04.95,10.22,2.91,13.77,1.86,3.58,3.38,3.17,3.48-.91h-.02ZM547.23,147.02c-.21-3.69-1.73-9.25-3.36-12.48-1.75-3.18-3.06-2.84-3.06.82.04,3.67,1.58,9.27,3.44,12.51.59,1,1.1,1.65,1.56,1.97h1.01c.34-.4.51-1.34.42-2.82h0ZM551.62,149.29c-1.65-2.83-2.81-2.58-2.66.54h2.95c-.09-.18-.19-.38-.29-.54ZM489.55,112.53c2.76,5.46,5.49,4.82,6.2-1.39.72-6.18-.36-15.51-2.57-20.87-2.17-5.35-5.13-4.75-6.4,1.34-1.27,6.12,0,15.52,2.77,20.93h0ZM476.48,64.64c-2.2,6.67-1.82,16.92.63,22.87,2.58,5.95,5.8,5.29,7.34-1.49,1.6-6.74,1.46-16.93-.4-22.79-1.86-5.84-5.34-5.22-7.56,1.41ZM515.23,137.53c-2.55-4.45-4.68-3.94-4.6,1.17.06,3.15,1.05,7.33,2.49,11.13h6.67c-1.01-4.37-2.7-9.17-4.56-12.3ZM467.91,35.22c-3.44,7.26-4.33,18.42-2.13,24.92,2.26,6.5,6.02,5.79,8.7-1.59,2.7-7.34,3.88-18.45,2.39-24.83-1.43-6.38-5.47-5.72-8.97,1.51h0ZM448.9.17c1.44,3.91,4.66,3.83,8.4,0h-8.4ZM463.78.17c-.7.85-1.44,1.85-2.17,3.01-4.81,7.86-7.28,20.02-5.59,27.09,1.75,7.12,6.31,6.31,10.32-1.7,4.07-7.98,6.73-20.05,5.89-27.01-.08-.51-.15-.98-.27-1.4h-8.21.02ZM507.93,134.06c.06-5.65-1.79-14.19-4.22-19.09-2.41-4.88-4.96-4.31-5.42,1.26-.49,5.61,1.56,14.19,4.41,19.14,2.87,4.99,5.17,4.37,5.25-1.31h-.02ZM482.58,149.83h6.97c-.3-.51-.61-1-.91-1.46-3.69-5.53-6.46-4.88-6.06,1.46ZM434.21,57.78c-3.12,8.3-2.58,21.08.97,28.42,3.52,7.43,7.94,6.49,10.07-1.98,2.11-8.42,1.94-21.05-.57-28.32-2.53-7.2-7.34-6.39-10.47,1.88ZM422.56,21.59c-4.96,8.99-6.2,22.8-3.23,30.8,3.14,8.03,8.34,7.06,12.12-2.13,3.76-9.13,5.57-22.84,3.67-30.68-1.98-7.79-7.7-6.94-12.58,2.01h.02ZM406.29.17c-1.35,5.8-1.6,11.43-.44,15.58,2.39,8.69,8.72,7.63,14.61-2.3,2.3-3.89,4.33-8.55,5.87-13.29h-20.05ZM478.68,144.11c-.25-7.12-3.17-17.82-6.58-23.95-3.46-6.07-6.78-5.36-7.28,1.65-.53,7.07,2.7,17.85,6.88,24.04,1.5,2.2,2.85,3.51,3.95,3.98h1.63c.99-.61,1.5-2.53,1.39-5.72h0ZM452.84,117.3c3.97,6.8,7.56,5.96,8.38-1.85.8-7.75-.93-19.38-3.95-26.07-3.1-6.62-7.07-5.87-8.72,1.75-1.62,7.66.38,19.41,4.31,26.16h-.02ZM380.73,36.96c-5.07,10.24-5,25.89-.38,34.89,4.66,9.06,10.85,7.86,14.37-2.64,3.48-10.41,4.14-25.94,1.03-34.75-3.15-8.75-10-7.67-15.01,2.5ZM403.71,110.04c5.34,8.38,10.36,7.28,11.74-2.44,1.41-9.64-.3-24.02-4.22-32.21-3.86-8.12-9.56-7.13-12.31,2.31-2.76,9.5-.44,24.02,4.79,32.35h0ZM362.47.17c-4.62,10.29-5.8,22.73-2.74,30.55,3.97,9.72,11.48,8.42,17.58-2.88,4.26-7.98,7.34-18.73,7.94-27.67h-22.79,0ZM452.27,148.25c-4.87-6.79-8.61-6.04-8.29,1.58h9.35c-.36-.55-.7-1.08-1.06-1.58ZM438.73,143.05c-.27-8.89-3.88-22.21-8.4-29.77-4.52-7.52-9.2-6.56-10.11,2.16-.91,8.79,3.25,22.2,8.91,29.89,1.65,2.23,3.15,3.7,4.49,4.5h3.63c1.03-1.06,1.58-3.33,1.48-6.78ZM312.54.17c-8.61,12.45-10.47,31.34-4.79,42.11,5.78,10.86,14.98,9.18,21.42-3.63,5.68-11.42,8.67-27.66,6.71-38.47h-23.34ZM287.7.17c2.38,1.09,5.11,1.08,8,0h-8ZM334.21,48.83c-5.19,11.62-3.59,29.28,2.93,39.38,6.65,10.18,14.01,8.68,17.2-3.27,3.15-11.84,2.58-29.36-2-39.23-4.56-9.76-12.9-8.43-18.13,3.11h0ZM401.87,134.38c-6.27-8.47-11.74-7.32-11.8,2.64-.02,3.75.91,8.23,2.47,12.82h17.6c-2.39-5.81-5.3-11.38-8.29-15.46h.02ZM360.25,94.46c-2.36,10.83,2.07,27.3,9.35,36.69,7.37,9.48,13.27,8.12,13.8-3,.55-11-3.02-27.3-8.51-36.54-5.53-9.09-12.31-7.88-14.63,2.85ZM280.56,56.79c-5.64,13.15-2.34,33.02,6.56,44.24,9.03,11.36,17.92,9.47,20.92-4.09,2.93-13.42,1.03-33.07-5.23-44.06-6.29-10.81-16.59-9.14-22.24,3.91h-.02ZM333.66,104.06c-7.34-10.19-15.62-8.66-17.64,3.51-2.03,12.3,4.88,30.88,14.58,41.44.27.28.51.55.78.81h15.41c.21-1.3.3-2.8.25-4.5-.4-12.5-5.97-30.94-13.4-41.27h.02ZM356.24,149.83h11.54c-5.72-5.49-10.26-5.37-11.54,0ZM252.3.17c-.78.92-1.56,1.9-2.32,2.96-9.98,14.04-10.89,35.14-2.95,47.02,8.11,12,19.4,9.87,26.55-4.62,6.78-13.78,9.29-33.53,5-45.35h-26.3.02ZM285.08,112.24c-9.58-11.3-19.71-9.39-21.65,4.37-1.31,9.54,2.83,22.33,9.6,33.21h29.31c-2.91-13.01-9.48-28.32-17.28-37.59h.02ZM216.65,60.63c-6.52,14.85-1.29,37.01,10.38,49.37,11.95,12.56,22.81,10.19,25.94-5.16,3-15.17-.15-37.1-8.51-49.2-8.32-11.87-21.25-9.73-27.82,4.99h.02ZM175.82.17c-.42.5-.84,1.02-1.25,1.55-10.89,14.24-11.14,35.24-1.73,46.8,9.58,11.73,22.62,9.21,30.6-5.44,7.01-13.07,9.39-31.16,5.13-42.92h-32.74,0ZM140.02.17c4.83,3.39,11.08,3.29,17.29,0h-17.29ZM94.96,12.9c-10.09,13.11-8.89,32,1.35,42.18,10.53,10.21,23.91,7.59,31.41-5.85,7.34-13.34,8-32.11.25-42.09-7.77-9.79-22.96-7.3-33.01,5.76ZM50.3.17c.67,3.57,2.22,6.78,4.68,9.3,8.42,8.64,22.27,6.05,31.98-5.69.95-1.17,1.86-2.38,2.68-3.62h-39.34ZM137.78,60.01c-7.35,15.05-1.25,37.08,12.07,49.1,13.65,12.21,26.23,9.46,30.05-6.05,3.67-15.34.04-37.21-9.94-48.98-9.79-11.6-24.84-8.99-32.19,5.92h.02ZM198.91,121.37c-1.12,8.27,1.84,18.62,7.26,28.46h39.74c-4.47-12.53-11.67-25.61-19.86-34.01-12.14-12.39-24.93-9.96-27.12,5.55h-.02ZM57.54,72.67c-6.61,13.88.59,33.66,14.61,44.2,14.33,10.65,27.4,7.71,30.96-6.51,3.44-14.07-1.46-33.78-12.58-44.13-11-10.16-26.36-7.34-32.99,6.43h0ZM14.25,69.61c11.59,8.92,25.37,6.04,32.1-6.37,6.65-12.35,5.57-29.37-3.67-38.08-9.08-8.63-24.59-5.84-33.64,6.31C.01,43.67,2.83,60.8,14.25,69.61ZM1.42.17v21.01C5.89,14.47,7.79,6.71,6.72.17H1.42ZM148.61,115c-13.78-12.07-28.72-9.15-31.59,6.57-1.46,8.31,1.6,18.57,7.39,28.26h46.56c-4.6-12.87-12.73-26.38-22.37-34.83ZM69.76,128.65c-14.86-10.55-30.08-7.36-32.4,7.16-.65,4.29.15,9.1,2.05,14.02h49.39c-4.98-8.22-11.61-15.92-19.02-21.18h-.02ZM1.42,83.44v54.27c10.55,2.54,18.8-1.7,21-11.66,2.81-13.03-3.76-30.87-16.29-39.86-1.52-1.1-3.1-2.01-4.71-2.75Z"/>
  </g>
</svg>