<?xml version="1.0" encoding="UTF-8"?>
<svg xmlns="http://www.w3.org/2000/svg" xmlns:xlink="http://www.w3.org/1999/xlink" viewBox="0 0 600 150.01">
  <defs>
    <style>
      .cls-1 {
        fill: url(#linear-gradient-16);
      }

      .cls-1, .cls-2, .cls-3, .cls-4, .cls-5, .cls-6, .cls-7, .cls-8, .cls-9, .cls-10, .cls-11, .cls-12, .cls-13, .cls-14, .cls-15, .cls-16 {
        isolation: isolate;
      }

      .cls-1, .cls-2, .cls-3, .cls-4, .cls-5, .cls-6, .cls-7, .cls-9, .cls-10, .cls-11, .cls-12, .cls-13, .cls-14, .cls-15, .cls-16 {
        mix-blend-mode: lighten;
        opacity: .44;
      }

      .cls-2 {
        fill: url(#linear-gradient-4);
      }

      .cls-3 {
        fill: url(#linear-gradient-12);
      }

      .cls-4 {
        fill: url(#linear-gradient-6);
      }

      .cls-5 {
        fill: url(#linear-gradient-11);
      }

      .cls-6 {
        fill: url(#linear-gradient-13);
      }

      .cls-7 {
        fill: url(#linear-gradient-3);
      }

      .cls-9 {
        fill: url(#linear-gradient-15);
      }

      .cls-10 {
        fill: url(#linear-gradient-14);
      }

      .cls-11 {
        fill: url(#linear-gradient-8);
      }

      .cls-12 {
        fill: url(#linear-gradient-7);
      }

      .cls-13 {
        fill: url(#linear-gradient-10);
      }

      .cls-17 {
        mix-blend-mode: overlay;
      }

      .cls-14 {
        fill: url(#linear-gradient-5);
      }

      .cls-15 {
        fill: url(#linear-gradient-2);
      }

      .cls-18 {
        fill: url(#linear-gradient);
      }

      .cls-16 {
        fill: url(#linear-gradient-9);
      }
    </style>
    <linearGradient id="linear-gradient" x1="600" y1="77" x2="0" y2="77" gradientTransform="translate(0 152) scale(1 -1)" gradientUnits="userSpaceOnUse">
      <stop offset="0" stop-color="#e6eef3"/>
      <stop offset=".5" stop-color="#0099da"/>
      <stop offset="1" stop-color="#1e489e"/>
    </linearGradient>
    <linearGradient id="linear-gradient-2" x1="70.94" y1="112.71" x2="70.94" y2="311.4" gradientTransform="translate(-147.4 175.94) rotate(41.12) scale(.9 -.88) skewX(12.91)" gradientUnits="userSpaceOnUse">
      <stop offset="0" stop-color="#fff"/>
      <stop offset="1" stop-color="#fff"/>
    </linearGradient>
    <linearGradient id="linear-gradient-3" x1="66.17" y1="97.57" x2="66.17" y2="307.3" gradientTransform="translate(-133.01 182.83) rotate(37.52) scale(.92 -.87) skewX(12.44)" gradientUnits="userSpaceOnUse">
      <stop offset="0" stop-color="#fff"/>
      <stop offset=".74" stop-color="#f5fbfe"/>
      <stop offset="1" stop-color="#f1fafe"/>
    </linearGradient>
    <linearGradient id="linear-gradient-4" x1="62.26" y1="88.1" x2="62.26" y2="304.91" gradientTransform="translate(-117.18 188.27) rotate(34.03) scale(.93 -.85) skewX(11.8)" gradientUnits="userSpaceOnUse">
      <stop offset="0" stop-color="#fff"/>
      <stop offset=".49" stop-color="#f5fbfe"/>
      <stop offset="1" stop-color="#e7f6fd"/>
    </linearGradient>
    <linearGradient id="linear-gradient-5" x1="58.88" y1="83.42" x2="58.88" y2="303.28" gradientTransform="translate(-101.49 193.64) rotate(30.62) scale(.94 -.84) skewX(11.01)" gradientUnits="userSpaceOnUse">
      <stop offset="0" stop-color="#fff"/>
      <stop offset=".37" stop-color="#f5fbfe"/>
      <stop offset=".99" stop-color="#dcf2fd"/>
      <stop offset="1" stop-color="#dcf2fd"/>
    </linearGradient>
    <linearGradient id="linear-gradient-6" x1="55.94" y1="83.49" x2="55.94" y2="303.19" gradientTransform="translate(-85.62 198.41) rotate(27.31) scale(.95 -.83) skewX(10.09)" gradientUnits="userSpaceOnUse">
      <stop offset="0" stop-color="#fff"/>
      <stop offset=".3" stop-color="#f5fbfe"/>
      <stop offset=".8" stop-color="#dcf2fc"/>
      <stop offset="1" stop-color="#d1eefc"/>
    </linearGradient>
    <linearGradient id="linear-gradient-7" x1="53.95" y1="84.93" x2="53.95" y2="302.77" gradientTransform="translate(-68.91 201.33) rotate(24.07) scale(.96 -.82) skewX(9.06)" gradientUnits="userSpaceOnUse">
      <stop offset="0" stop-color="#fff"/>
      <stop offset=".26" stop-color="#f5fbfe"/>
      <stop offset=".69" stop-color="#dcf2fc"/>
      <stop offset="1" stop-color="#c6eafb"/>
    </linearGradient>
    <linearGradient id="linear-gradient-8" x1="401.71" y1="88.45" x2="401.71" y2="304.23" gradientTransform="translate(-52.43 204.18) rotate(20.9) scale(.97 -.81) skewX(7.94)" gradientUnits="userSpaceOnUse">
      <stop offset="0" stop-color="#fff"/>
      <stop offset=".23" stop-color="#f5fbfe"/>
      <stop offset=".61" stop-color="#dcf2fc"/>
      <stop offset="1" stop-color="#bce6fb"/>
    </linearGradient>
    <linearGradient id="linear-gradient-9" x1="53.09" x2="53.09" y2="304.2" xlink:href="#linear-gradient-8"/>
    <linearGradient id="linear-gradient-10" x1="403.57" y1="91.3" x2="403.57" y2="306.11" gradientTransform="translate(-35.49 207.53) rotate(17.78) scale(.98 -.81) skewX(6.73)" gradientUnits="userSpaceOnUse">
      <stop offset="0" stop-color="#fff"/>
      <stop offset=".2" stop-color="#f5fbfe"/>
      <stop offset=".54" stop-color="#dcf2fc"/>
      <stop offset=".96" stop-color="#b3e3fa"/>
      <stop offset="1" stop-color="#b0e2fa"/>
    </linearGradient>
    <linearGradient id="linear-gradient-11" x1="54.17" y1="91.3" x2="54.17" y2="306.13" xlink:href="#linear-gradient-10"/>
    <linearGradient id="linear-gradient-12" x1="377.67" y1="91.76" x2="377.67" y2="307.69" gradientTransform="translate(-18.67 207.83) rotate(14.72) scale(.99 -.8) skewX(5.46)" gradientUnits="userSpaceOnUse">
      <stop offset="0" stop-color="#fff"/>
      <stop offset=".18" stop-color="#f5fbfe"/>
      <stop offset=".49" stop-color="#dcf2fc"/>
      <stop offset=".87" stop-color="#b3e4f9"/>
      <stop offset="1" stop-color="#a5dff9"/>
    </linearGradient>
    <linearGradient id="linear-gradient-13" x1="67.09" y1="91.76" x2="67.09" y2="307.68" xlink:href="#linear-gradient-12"/>
    <linearGradient id="linear-gradient-14" x1="265.95" y1="87.78" x2="265.95" y2="309.97" gradientTransform="translate(-.84 209.17) rotate(11.69) scale(.99 -.8) skewX(4.14)" gradientUnits="userSpaceOnUse">
      <stop offset="0" stop-color="#fff"/>
      <stop offset=".17" stop-color="#f5fbfe"/>
      <stop offset=".45" stop-color="#dcf2fc"/>
      <stop offset=".8" stop-color="#b3e4fa"/>
      <stop offset="1" stop-color="#99dbf9"/>
    </linearGradient>
    <linearGradient id="linear-gradient-15" x1="258.76" y1="82.38" x2="258.76" y2="310.52" gradientTransform="translate(16.91 206.66) rotate(8.69) scale(1 -.79) skewX(2.78)" gradientUnits="userSpaceOnUse">
      <stop offset="0" stop-color="#fff"/>
      <stop offset=".15" stop-color="#f5fbfe"/>
      <stop offset=".41" stop-color="#dcf3fc"/>
      <stop offset=".73" stop-color="#b3e5fa"/>
      <stop offset="1" stop-color="#8dd8f8"/>
    </linearGradient>
    <linearGradient id="linear-gradient-16" x1="250.73" y1="79.26" x2="250.73" y2="312.83" gradientTransform="translate(33.76 205.82) rotate(5.71) scale(1 -.79) skewX(1.4)" gradientUnits="userSpaceOnUse">
      <stop offset="0" stop-color="#fff"/>
      <stop offset=".14" stop-color="#f5fbfe"/>
      <stop offset=".38" stop-color="#dcf3fc"/>
      <stop offset=".68" stop-color="#b3e5fa"/>
      <stop offset="1" stop-color="#81d4f7"/>
    </linearGradient>
  </defs>
  <g class="cls-8">
    <g id="Layer_2" data-name="Layer 2">
      <g id="Layer_1-2" data-name="Layer 1">
        <rect class="cls-18" width="600" height="150"/>
        <g class="cls-17">
          <path class="cls-15" d="M1,111.9c12.79,13.59,26.69,26.37,41.61,38.1H1v-38.1Z"/>
          <path class="cls-7" d="M1,108.63c15.21,14.99,31.78,28.9,49.52,41.37H2.81c-.6-.51-1.21-1.01-1.81-1.52v-39.85Z"/>
          <path class="cls-2" d="M1,105.57c17.88,16.39,37.35,31.38,58.16,44.43H9.75c-2.94-2.23-5.85-4.49-8.75-6.79v-37.64Z"/>
          <path class="cls-14" d="M1,102.68c20.87,17.85,43.57,33.88,67.77,47.32H17.12c-5.43-3.75-10.8-7.59-16.12-11.53v-35.79Z"/>
          <path class="cls-4" d="M1,99.9c24.26,19.41,50.64,36.48,78.65,50.1H25c-8.1-5.08-16.1-10.37-24-15.85,0,0,0-34.25,0-34.25Z"/>
          <path class="cls-12" d="M1,97.23c28.24,21.16,58.92,39.31,91.35,52.77h-58.84c-10.99-6.24-21.83-12.87-32.51-19.81v-32.96Z"/>
          <path class="cls-11" d="M355.35,150c2.74-.48,5.47-.96,8.19-1.44,46.01-8.05,90.94-8.56,130.81,1.44h-139.01,0Z"/>
          <path class="cls-16" d="M1,94.61c33.13,23.26,69.09,42.61,106.9,55.39H42.82c-14.15-7.25-28.09-15.13-41.82-23.49v-31.89h0Z"/>
          <path class="cls-13" d="M281.79,150c28.43-5.15,57-12.1,85.24-19.16,68.61-17.11,136.13-18.71,189.08,9.18,5.95,3.15,11.8,6.49,17.55,9.98h-291.88.01Z"/>
          <path class="cls-5" d="M1,92.05c39.74,26.15,82.89,46.97,127.92,57.95H53.16c-17.66-8.09-35.05-17.17-52.16-26.93v-31.02Z"/>
          <path class="cls-3" d="M600,150H206.12c53.47-2.95,108.61-19.1,162.63-36.6,68.94-22.29,137.84-30.53,193.16-5.65,13.1,5.93,25.73,12.82,38.09,20.28v21.97h0Z"/>
          <path class="cls-6" d="M1,89.52c49.06,30.24,102.42,52.78,157.44,59.23,4.73.55,9.48.96,14.25,1.24h-107.77c-21.65-8.74-42.95-18.98-63.92-30.17,0,0,0-30.3,0-30.3Z"/>
          <path class="cls-10" d="M1,87.01c49.99,28.83,103.58,50.09,158.23,54.93,68.24,5.99,139.76-17.78,209.46-45.44,69.05-27.36,138.86-42.76,196.44-21.18,11.93,4.51,23.51,9.88,34.87,15.84v58.84h-100.67c-39.16-8.1-81.22-6.41-123.9,0H78.69c-26.3-9.11-52.2-20.53-77.69-33.23v-29.75h0Z"/>
          <path class="cls-9" d="M1,84.51c50.65,27.26,104.17,47.17,158.17,50.54,68.29,4.18,138.9-22.44,207.67-54.64,68.97-32.24,139.07-55.27,198.92-37.46,11.67,3.51,23.05,7.93,34.24,13.02v94.04h-8.09c-14.86-7.41-29.92-13.85-45.01-19.16-59.85-20.92-127.46-10.56-194.78,7.15-16.31,4.3-32.72,8.4-49.16,12H95.77c-32.05-9.01-63.65-21.73-94.77-36.16v-29.34h0Z"/>
          <path class="cls-1" d="M1,81.99c51.03,25.54,104.19,44.05,157.26,46.08,68.04,2.53,137.43-26.47,204.96-62.73C431.9,28.48,501.54-2.48,563.8,10.84c12.3,2.67,24.34,6.48,36.2,11.14v94.81c-15.8-7.16-31.77-13.11-47.77-17.62-62.05-17.38-130.19-.31-197.7,22.29-35.16,11.79-70.77,22.23-106.31,28.54H119.54c-40-7.85-79.55-22.21-118.54-38.96v-29.05Z"/>
        </g>
      </g>
    </g>
  </g>
</svg>