<?xml version="1.0" encoding="UTF-8"?>
<svg xmlns="http://www.w3.org/2000/svg" xmlns:xlink="http://www.w3.org/1999/xlink" viewBox="0 0 600 150">
  <defs>
    <style>
      .cls-1, .cls-2 {
        isolation: isolate;
      }

      .cls-2 {
        fill: #fff;
        mix-blend-mode: overlay;
        opacity: .7;
      }

      .cls-3 {
        fill: url(#linear-gradient);
      }
    </style>
    <linearGradient id="linear-gradient" x1="600" y1="77" x2="0" y2="77" gradientTransform="translate(0 152) scale(1 -1)" gradientUnits="userSpaceOnUse">
      <stop offset="0" stop-color="#e6eef3"/>
      <stop offset=".5" stop-color="#0099da"/>
      <stop offset="1" stop-color="#1e489e"/>
    </linearGradient>
  </defs>
  <g class="cls-1">
    <g id="Layer_2" data-name="Layer 2">
      <g id="Layer_1-2" data-name="Layer 1">
        <rect class="cls-3" width="600" height="150"/>
        <path class="cls-2" d="M538.74,28.22c.93-2.13,1.63-5.41,1.67-7.34,0-1.93-.82-1.78-1.82.35-.93,2.11-1.68,5.39-1.65,7.34.07,1.93.88,1.78,1.8-.35ZM538.62,11.48c-1.13,2.33-2.08,5.96-2.08,8.12.05,2.13.98,1.96,2.04-.38,1.15-2.36,2.06-5.97,2.09-8.11,0-2.12-.88-1.97-2.06.37ZM539.12,36.34c.79-1.92,1.34-4.89,1.3-6.63-.05-1.75-.76-1.61-1.6.32-.84,1.92-1.44,4.9-1.29,6.65.07,1.76.81,1.6,1.6-.33h-.02ZM536.63.17c.21.49.58.49,1.1,0h-1.1ZM539.27.17c-.1.16-.21.34-.29.53-1.37,2.58-2.59,6.6-2.63,8.97,0,2.36.98,2.19,2.32-.42,1.27-2.6,2.51-6.6,2.64-8.95v-.13s-2.04,0-2.04,0ZM539.62,43.68c.72-1.75,1.12-4.42,1.01-6-.1-1.57-.76-1.45-1.43.29-.76,1.74-1.13,4.42-1,6.01.14,1.58.76,1.45,1.41-.3h0ZM514.32,36.95c1.37-3.31,2.34-8.41,2.15-11.37-.17-2.97-1.53-2.72-2.99.56-1.44,3.29-2.42,8.42-2.11,11.4.27,3,1.6,2.73,2.95-.59ZM523.43,89c.43-2.03.34-5.12-.05-6.93-.39-1.79-1.18-1.63-1.56.39-.39,2.02-.45,5.15.07,6.95.41,1.81,1.18,1.63,1.55-.4h0ZM525.47,96.61c.31-1.84.21-4.64-.22-6.27-.43-1.62-1.05-1.48-1.37.36-.34,1.84-.21,4.64.24,6.28.46,1.63,1.06,1.47,1.36-.37h0ZM514.6,39.76c-1.17,3-1.85,7.63-1.44,10.34.38,2.7,1.51,2.46,2.59-.55,1.12-3.01,1.67-7.6,1.48-10.31-.29-2.68-1.43-2.46-2.63.53h0ZM510.53.17c-1,2.98-1.65,6.05-1.58,8.22.03,3.65,1.79,3.33,3.88-.68,1.12-2.14,2.16-4.89,2.92-7.53h-5.22ZM521.36,80.59c.5-2.23.58-5.67.19-7.67-.48-1.98-1.22-1.8-1.77.42-.64,2.24-.69,5.68-.17,7.68.45,2.01,1.24,1.81,1.75-.43h0ZM517.47,60.94c.88-2.73,1.29-6.91.93-9.35-.34-2.43-1.37-2.22-2.3.49-1,2.73-1.3,6.91-.91,9.37.52,2.44,1.48,2.22,2.27-.51h.02ZM519.89,62.79c-.36-2.2-1.34-2.01-2.03.45-.77,2.46-.96,6.27-.5,8.48.39,2.24,1.36,2.01,1.99-.46.64-2.48.86-6.25.52-8.47h.02ZM513.29,23.05c1.65-3.65,3.07-9.26,3-12.53.02-3.29-1.55-3.01-3.42.61-1.82,3.63-3.12,9.25-2.95,12.55.17,3.31,1.68,3.02,3.38-.63h-.02ZM478.32.17c-.12,1.08-.17,2.09-.14,2.98.21,5.03,2.85,4.57,5.91-1,.34-.63.69-1.29,1.03-1.99h-6.8ZM494.49,76.07c.98-3.85,1.13-9.7.48-13.11-.72-3.39-2.28-3.07-3.37.74-1.13,3.82-1.29,9.7-.43,13.13.91,3.43,2.34,3.09,3.3-.76h.02ZM490.87,60.16c1.29-4.22,1.91-10.64,1.39-14.42-.69-3.71-2.39-3.38-3.88.79-1.56,4.19-2.06,10.64-1.32,14.44.86,3.77,2.4,3.43,3.81-.82h0ZM485.86,27.63c-2.04,4.6-3.12,11.7-2.47,15.87.64,4.18,2.58,3.77,4.4-.88,1.72-4.62,2.9-11.7,2.56-15.83-.38-4.12-2.4-3.75-4.48.83h0ZM485.43,23.35c2.35-5.07,4.14-12.82,4.03-17.37-.1-4.53-2.49-4.12-5.19.89-2.66,5.03-4.38,12.82-3.93,17.41.52,4.58,2.73,4.15,5.08-.93ZM498.44,90.49c.65-3.49.57-8.82-.21-11.9-.74-3.1-2.13-2.78-2.92.69-.81,3.47-.7,8.82.27,11.92.98,3.12,2.23,2.78,2.87-.71h-.02ZM521.33,145.88c-.81-1.68-1.36-1.51-1.29.43.09,1,.31,2.28.62,3.52h1.94c-.33-1.44-.79-2.92-1.27-3.95ZM502.6,103.57c.38-3.17.14-8.01-.74-10.8-.86-2.79-1.97-2.51-2.54.63-.57,3.16-.17,8,.79,10.82.98,2.81,2.09,2.53,2.49-.66h0ZM507.75,117.79c-.15,2.6.38,6.59,1.41,8.88.94,2.32,1.84,2.05,1.91-.56.09-2.6-.5-6.58-1.37-8.87-.88-2.28-1.79-2.05-1.94.54h0ZM519.2,144.55c-.07-2.14-.79-5.41-1.65-7.27-.86-1.87-1.48-1.66-1.48.47.02,2.14.77,5.4,1.68,7.28s1.6,1.66,1.46-.48h-.02ZM506.84,115.4c.21-2.88-.29-7.25-1.12-9.79-.89-2.54-1.85-2.28-2.21.59-.38,2.87.19,7.25,1.15,9.81,1,2.54,1.96,2.28,2.18-.61ZM515.18,135.8c0-2.37-.67-5.97-1.56-8.03-.88-2.07-1.63-1.85-1.68.51-.05,2.35.64,5.96,1.58,8.04.86,2.1,1.68,1.85,1.67-.52h0ZM467.61,81.66c-1.15,4.86-.65,12.3.94,16.62,1.56,4.35,3.42,3.87,4.26-1.04.81-4.89.46-12.3-.84-16.58-1.29-4.27-3.28-3.83-4.36,1ZM474.28,101.29c-.65,4.43.27,11.2,1.92,15.14,1.73,3.93,3.28,3.5,3.64-.97.38-4.46-.45-11.19-1.82-15.11-1.41-3.88-3.14-3.47-3.74.94ZM456.67,36.42c-2.42,5.8-3.28,14.74-2.01,19.96,1.29,5.23,3.86,4.69,5.8-1.18,2.01-5.85,2.95-14.74,2.15-19.9-.91-5.12-3.55-4.64-5.94,1.13h0ZM461.63,60.08c-1.73,5.31-1.82,13.49-.34,18.23,1.46,4.77,3.66,4.26,4.96-1.11,1.36-5.36,1.58-13.47.48-18.19-1.12-4.67-3.43-4.21-5.1,1.06h0ZM455.77,31.06c2.82-6.39,4.72-16.09,4.28-21.75-.57-5.59-3.66-5.09-6.97,1.2-3.37,6.33-5.13,16.11-4.12,21.82.96,5.74,4,5.15,6.8-1.27h.02ZM444.8.17c-.31,2.15-.41,4.15-.26,5.83.65,6.25,4.12,5.65,7.98-1.35.76-1.37,1.49-2.89,2.18-4.48,0,0-9.91,0-9.91,0ZM487.16,132c0-4.05-1.03-10.2-2.54-13.74-1.49-3.53-2.9-3.15-3.21.87-.26,4.04.86,10.22,2.63,13.77,1.68,3.58,3.06,3.17,3.14-.91h-.02ZM494.54,147.02c-.19-3.69-1.56-9.25-3.04-12.48-1.58-3.18-2.76-2.84-2.76.82.03,3.67,1.43,9.27,3.11,12.51.53,1,1,1.65,1.41,1.97h.91c.31-.4.46-1.34.38-2.82h0ZM498.51,149.29c-1.49-2.83-2.54-2.58-2.4.54h2.66c-.09-.18-.17-.38-.26-.54ZM442.43,112.53c2.49,5.46,4.96,4.82,5.6-1.39.65-6.18-.33-15.51-2.32-20.87-1.96-5.35-4.64-4.75-5.79,1.34-1.15,6.12,0,15.52,2.51,20.93h0ZM430.62,64.64c-1.99,6.67-1.65,16.92.57,22.87,2.34,5.95,5.24,5.29,6.63-1.49,1.44-6.74,1.32-16.93-.36-22.79-1.68-5.84-4.82-5.22-6.83,1.41ZM465.63,137.53c-2.3-4.45-4.22-3.94-4.16,1.17.05,3.15.94,7.33,2.25,11.13h6.03c-.91-4.37-2.44-9.17-4.12-12.3ZM422.88,35.22c-3.11,7.26-3.91,18.42-1.92,24.92,2.04,6.5,5.44,5.79,7.86-1.59,2.44-7.34,3.5-18.45,2.16-24.83-1.29-6.38-4.95-5.72-8.1,1.51h0ZM405.71.17c1.3,3.91,4.21,3.83,7.59,0h-7.59ZM419.15.17c-.64.85-1.3,1.85-1.96,3.01-4.34,7.86-6.58,20.02-5.05,27.09,1.58,7.12,5.7,6.31,9.32-1.7,3.67-7.98,6.08-20.05,5.32-27.01-.07-.51-.14-.98-.24-1.4h-7.42.02ZM459.04,134.06c.05-5.65-1.61-14.19-3.81-19.09-2.18-4.88-4.48-4.31-4.89,1.26-.45,5.61,1.41,14.19,3.98,19.14,2.59,4.99,4.67,4.37,4.74-1.31h-.02ZM436.13,149.83h6.3c-.27-.51-.55-1-.82-1.46-3.33-5.53-5.84-4.88-5.48,1.46ZM392.43,57.78c-2.82,8.3-2.34,21.08.88,28.42,3.18,7.43,7.18,6.49,9.1-1.98,1.91-8.42,1.75-21.05-.52-28.32-2.28-7.2-6.63-6.39-9.46,1.88ZM381.91,21.59c-4.48,8.99-5.6,22.8-2.92,30.8,2.83,8.03,7.54,7.06,10.95-2.13,3.4-9.13,5.03-22.84,3.31-30.68-1.79-7.79-6.95-6.94-11.37,2.01h.02ZM367.21.17c-1.22,5.8-1.44,11.43-.39,15.58,2.16,8.69,7.88,7.63,13.2-2.3,2.08-3.89,3.91-8.55,5.31-13.29h-18.11ZM432.61,144.11c-.22-7.12-2.87-17.82-5.94-23.95-3.12-6.07-6.13-5.36-6.58,1.65-.48,7.07,2.44,17.85,6.22,24.04,1.36,2.2,2.58,3.51,3.57,3.98h1.48c.89-.61,1.36-2.53,1.25-5.72h0ZM409.26,117.3c3.59,6.8,6.83,5.96,7.57-1.85.72-7.75-.84-19.38-3.57-26.07-2.8-6.62-6.39-5.87-7.88,1.75-1.46,7.66.34,19.41,3.9,26.16h-.02ZM344.12,36.96c-4.58,10.24-4.52,25.89-.34,34.89,4.21,9.06,9.8,7.86,12.98-2.64,3.14-10.41,3.74-25.94.93-34.75-2.85-8.75-9.03-7.67-13.56,2.5ZM364.88,110.04c4.82,8.38,9.36,7.28,10.61-2.44,1.27-9.64-.27-24.02-3.81-32.21-3.49-8.12-8.64-7.13-11.13,2.31-2.49,9.5-.39,24.02,4.33,32.35h0ZM327.62.17c-4.17,10.29-5.24,22.73-2.47,30.55,3.59,9.72,10.37,8.42,15.88-2.88,3.85-7.98,6.63-18.73,7.18-27.67h-20.59,0ZM408.75,148.25c-4.4-6.79-7.78-6.04-7.49,1.58h8.45c-.33-.55-.64-1.08-.96-1.58ZM396.52,143.05c-.24-8.89-3.5-22.21-7.59-29.77-4.09-7.52-8.31-6.56-9.13,2.16-.82,8.79,2.94,22.2,8.05,29.89,1.49,2.23,2.85,3.7,4.05,4.5h3.28c.93-1.06,1.43-3.33,1.34-6.78ZM282.51.17c-7.78,12.45-9.46,31.34-4.33,42.11,5.22,10.86,13.53,9.18,19.35-3.63,5.13-11.42,7.83-27.66,6.06-38.47h-21.08ZM260.07.17c2.15,1.09,4.62,1.08,7.23,0h-7.23ZM302.09,48.83c-4.69,11.62-3.25,29.28,2.64,39.38,6.01,10.18,12.65,8.68,15.54-3.27,2.85-11.84,2.34-29.36-1.8-39.23-4.12-9.76-11.66-8.43-16.38,3.11h0ZM363.21,134.38c-5.67-8.47-10.61-7.32-10.66,2.64-.02,3.75.82,8.23,2.23,12.82h15.9c-2.16-5.81-4.79-11.38-7.49-15.46h.02ZM325.61,94.46c-2.13,10.83,1.87,27.3,8.45,36.69,6.66,9.48,11.98,8.12,12.47-3,.5-11-2.73-27.3-7.69-36.54-5-9.09-11.13-7.88-13.22,2.85ZM253.61,56.79c-5.1,13.15-2.11,33.02,5.92,44.24,8.16,11.36,16.19,9.47,18.9-4.09,2.64-13.42.93-33.07-4.72-44.06-5.68-10.81-14.99-9.14-20.09,3.91h-.02ZM301.59,104.06c-6.63-10.19-14.11-8.66-15.93,3.51-1.84,12.3,4.41,30.88,13.17,41.44.24.28.46.55.7.81h13.92c.19-1.3.27-2.8.22-4.5-.36-12.5-5.39-30.94-12.1-41.27h.02ZM321.99,149.83h10.42c-5.17-5.49-9.27-5.37-10.42,0ZM228.08.17c-.7.92-1.41,1.9-2.09,2.96-9.01,14.04-9.84,35.14-2.66,47.02,7.33,12,17.53,9.87,23.99-4.62,6.13-13.78,8.4-33.53,4.52-45.35h-23.76.02ZM257.7,112.24c-8.65-11.3-17.81-9.39-19.56,4.37-1.18,9.54,2.56,22.33,8.67,33.21h26.48c-2.63-13.01-8.57-28.32-15.61-37.59h.02ZM195.87,60.63c-5.89,14.85-1.17,37.01,9.37,49.37,10.8,12.56,20.6,10.19,23.44-5.16,2.71-15.17-.14-37.1-7.69-49.2-7.52-11.87-19.2-9.73-25.14,4.99h.02ZM158.99.17c-.38.5-.76,1.02-1.13,1.55-9.84,14.24-10.06,35.24-1.56,46.8,8.65,11.73,20.43,9.21,27.64-5.44,6.34-13.07,8.48-31.16,4.64-42.92h-29.58,0ZM126.64.17c4.36,3.39,10.01,3.29,15.62,0h-15.62ZM85.93,12.9c-9.12,13.11-8.04,32,1.22,42.18,9.51,10.21,21.6,7.59,28.38-5.85,6.63-13.34,7.23-32.11.22-42.09-7.02-9.79-20.74-7.3-29.82,5.76ZM45.58.17c.6,3.57,2.01,6.78,4.22,9.3,7.61,8.64,20.12,6.05,28.9-5.69.86-1.17,1.68-2.38,2.42-3.62h-35.54ZM124.61,60.01c-6.64,15.05-1.13,37.08,10.9,49.1,12.33,12.21,23.69,9.46,27.15-6.05,3.31-15.34.03-37.21-8.98-48.98-8.84-11.6-22.44-8.99-29.09,5.92h.02ZM179.85,121.37c-1.01,8.27,1.67,18.62,6.56,28.46h35.9c-4.03-12.53-10.54-25.61-17.94-34.01-10.97-12.39-22.53-9.96-24.5,5.55h-.02ZM52.12,72.67c-5.98,13.88.53,33.66,13.2,44.2,12.95,10.65,24.76,7.71,27.97-6.51,3.11-14.07-1.32-33.78-11.37-44.13-9.94-10.16-23.81-7.34-29.81,6.43h0ZM13.01,69.61c10.47,8.92,22.92,6.04,29-6.37,6.01-12.35,5.03-29.37-3.31-38.08-8.21-8.63-22.22-5.84-30.39,6.31C.15,43.67,2.69,60.8,13.01,69.61ZM1.42.17v21.01C5.45,14.47,7.17,6.71,6.21.17H1.42ZM134.4,115c-12.45-12.07-25.94-9.15-28.54,6.57-1.32,8.31,1.44,18.57,6.68,28.26h42.07c-4.16-12.87-11.5-26.38-20.21-34.83ZM63.16,128.65c-13.43-10.55-27.18-7.36-29.28,7.16-.58,4.29.14,9.1,1.85,14.02h44.63c-4.5-8.22-10.49-15.92-17.19-21.18h-.02ZM1.42,83.44v54.27c9.53,2.54,16.98-1.7,18.97-11.66,2.54-13.03-3.4-30.87-14.71-39.86-1.37-1.1-2.8-2.01-4.26-2.75Z"/>
      </g>
    </g>
  </g>
</svg>