<?xml version="1.0" encoding="UTF-8"?>
<svg xmlns="http://www.w3.org/2000/svg" version="1.1" xmlns:xlink="http://www.w3.org/1999/xlink" viewBox="0 0 600 150">
  <!-- Generator: Adobe Illustrator 29.0.1, SVG Export Plug-In . SVG Version: 2.1.0 Build 192)  -->
  <defs>
    <style>
      .st0 {
        fill: url(#linear-gradient15);
      }

      .st0, .st1, .st2, .st3, .st4, .st5, .st6, .st7, .st8, .st9, .st10, .st11, .st12, .st13, .st14, .st15, .st16 {
        isolation: isolate;
      }

      .st0, .st1, .st2, .st3, .st4, .st5, .st6, .st7, .st9, .st10, .st11, .st12, .st13, .st14, .st16 {
        mix-blend-mode: lighten;
        opacity: .4;
      }

      .st1 {
        fill: url(#linear-gradient3);
      }

      .st2 {
        fill: url(#linear-gradient2);
      }

      .st3 {
        fill: url(#linear-gradient13);
      }

      .st4 {
        fill: url(#linear-gradient6);
      }

      .st5 {
        fill: url(#linear-gradient5);
      }

      .st6 {
        fill: url(#linear-gradient10);
      }

      .st7 {
        fill: url(#linear-gradient14);
      }

      .st9 {
        fill: url(#linear-gradient1);
      }

      .st10 {
        fill: url(#linear-gradient7);
      }

      .st11 {
        fill: url(#linear-gradient9);
      }

      .st12 {
        fill: url(#linear-gradient4);
      }

      .st13 {
        fill: url(#linear-gradient11);
      }

      .st17, .st15 {
        mix-blend-mode: overlay;
      }

      .st14 {
        fill: url(#linear-gradient12);
      }

      .st15 {
        fill: #fff;
        opacity: .7;
      }

      .st18 {
        fill: url(#linear-gradient);
      }

      .st16 {
        fill: url(#linear-gradient8);
      }
    </style>
    <linearGradient id="linear-gradient" x1="600" y1="77" x2="0" y2="77" gradientTransform="translate(0 152) scale(1 -1)" gradientUnits="userSpaceOnUse">
      <stop offset="0" stop-color="#e6eef3"/>
      <stop offset=".5" stop-color="#0099da"/>
      <stop offset="1" stop-color="#1e489e"/>
    </linearGradient>
    <linearGradient id="linear-gradient1" x1="70.9" y1="112.7" x2="70.9" y2="311.4" gradientTransform="translate(-147.4 175.9) rotate(41.1) scale(.9 -.9) skewX(12.9)" gradientUnits="userSpaceOnUse">
      <stop offset="0" stop-color="#fff"/>
      <stop offset="1" stop-color="#fff"/>
    </linearGradient>
    <linearGradient id="linear-gradient2" x1="66.2" y1="97.6" x2="66.2" y2="307.3" gradientTransform="translate(-133 182.8) rotate(37.5) scale(.9 -.9) skewX(12.4)" gradientUnits="userSpaceOnUse">
      <stop offset="0" stop-color="#fff"/>
      <stop offset=".7" stop-color="#f5fbfe"/>
      <stop offset="1" stop-color="#f1fafe"/>
    </linearGradient>
    <linearGradient id="linear-gradient3" x1="62.3" y1="88.1" x2="62.3" y2="304.9" gradientTransform="translate(-117.2 188.3) rotate(34) scale(.9 -.9) skewX(11.8)" gradientUnits="userSpaceOnUse">
      <stop offset="0" stop-color="#fff"/>
      <stop offset=".5" stop-color="#f5fbfe"/>
      <stop offset="1" stop-color="#e7f6fd"/>
    </linearGradient>
    <linearGradient id="linear-gradient4" x1="58.9" y1="83.4" x2="58.9" y2="303.3" gradientTransform="translate(-101.5 193.6) rotate(30.6) scale(.9 -.8) skewX(11)" gradientUnits="userSpaceOnUse">
      <stop offset="0" stop-color="#fff"/>
      <stop offset=".4" stop-color="#f5fbfe"/>
      <stop offset="1" stop-color="#dcf2fd"/>
      <stop offset="1" stop-color="#dcf2fd"/>
    </linearGradient>
    <linearGradient id="linear-gradient5" x1="55.9" y1="83.5" x2="55.9" y2="303.2" gradientTransform="translate(-85.6 198.4) rotate(27.3) scale(.9 -.8) skewX(10.1)" gradientUnits="userSpaceOnUse">
      <stop offset="0" stop-color="#fff"/>
      <stop offset=".3" stop-color="#f5fbfe"/>
      <stop offset=".8" stop-color="#dcf2fc"/>
      <stop offset="1" stop-color="#d1eefc"/>
    </linearGradient>
    <linearGradient id="linear-gradient6" x1="53.9" y1="84.9" x2="53.9" y2="302.8" gradientTransform="translate(-68.9 201.3) rotate(24.1) scale(1 -.8) skewX(9.1)" gradientUnits="userSpaceOnUse">
      <stop offset="0" stop-color="#fff"/>
      <stop offset=".3" stop-color="#f5fbfe"/>
      <stop offset=".7" stop-color="#dcf2fc"/>
      <stop offset="1" stop-color="#c6eafb"/>
    </linearGradient>
    <linearGradient id="linear-gradient7" x1="401.7" y1="88.5" x2="401.7" y2="304.2" gradientTransform="translate(-52.4 204.2) rotate(20.9) scale(1 -.8) skewX(7.9)" gradientUnits="userSpaceOnUse">
      <stop offset="0" stop-color="#fff"/>
      <stop offset=".2" stop-color="#f5fbfe"/>
      <stop offset=".6" stop-color="#dcf2fc"/>
      <stop offset="1" stop-color="#bce6fb"/>
    </linearGradient>
    <linearGradient id="linear-gradient8" x1="53.1" y1="88.5" x2="53.1" y2="304.2" gradientTransform="translate(-52.4 204.2) rotate(20.9) scale(1 -.8) skewX(7.9)" gradientUnits="userSpaceOnUse">
      <stop offset="0" stop-color="#fff"/>
      <stop offset=".2" stop-color="#f5fbfe"/>
      <stop offset=".6" stop-color="#dcf2fc"/>
      <stop offset="1" stop-color="#bce6fb"/>
    </linearGradient>
    <linearGradient id="linear-gradient9" x1="403.6" y1="91.3" x2="403.6" y2="306.1" gradientTransform="translate(-35.5 207.5) rotate(17.8) scale(1 -.8) skewX(6.7)" gradientUnits="userSpaceOnUse">
      <stop offset="0" stop-color="#fff"/>
      <stop offset=".2" stop-color="#f5fbfe"/>
      <stop offset=".5" stop-color="#dcf2fc"/>
      <stop offset="1" stop-color="#b3e3fa"/>
      <stop offset="1" stop-color="#b0e2fa"/>
    </linearGradient>
    <linearGradient id="linear-gradient10" x1="54.2" y1="91.3" x2="54.2" y2="306.1" gradientTransform="translate(-35.5 207.5) rotate(17.8) scale(1 -.8) skewX(6.7)" gradientUnits="userSpaceOnUse">
      <stop offset="0" stop-color="#fff"/>
      <stop offset=".2" stop-color="#f5fbfe"/>
      <stop offset=".5" stop-color="#dcf2fc"/>
      <stop offset="1" stop-color="#b3e3fa"/>
      <stop offset="1" stop-color="#b0e2fa"/>
    </linearGradient>
    <linearGradient id="linear-gradient11" x1="377.7" y1="91.8" x2="377.7" y2="307.7" gradientTransform="translate(-18.7 207.8) rotate(14.7) scale(1 -.8) skewX(5.5)" gradientUnits="userSpaceOnUse">
      <stop offset="0" stop-color="#fff"/>
      <stop offset=".2" stop-color="#f5fbfe"/>
      <stop offset=".5" stop-color="#dcf2fc"/>
      <stop offset=".9" stop-color="#b3e4f9"/>
      <stop offset="1" stop-color="#a5dff9"/>
    </linearGradient>
    <linearGradient id="linear-gradient12" x1="67.1" y1="91.8" x2="67.1" y2="307.7" gradientTransform="translate(-18.7 207.8) rotate(14.7) scale(1 -.8) skewX(5.5)" gradientUnits="userSpaceOnUse">
      <stop offset="0" stop-color="#fff"/>
      <stop offset=".2" stop-color="#f5fbfe"/>
      <stop offset=".5" stop-color="#dcf2fc"/>
      <stop offset=".9" stop-color="#b3e4f9"/>
      <stop offset="1" stop-color="#a5dff9"/>
    </linearGradient>
    <linearGradient id="linear-gradient13" x1="266" y1="87.8" x2="266" y2="310" gradientTransform="translate(-.8 209.2) rotate(11.7) scale(1 -.8) skewX(4.1)" gradientUnits="userSpaceOnUse">
      <stop offset="0" stop-color="#fff"/>
      <stop offset=".2" stop-color="#f5fbfe"/>
      <stop offset=".5" stop-color="#dcf2fc"/>
      <stop offset=".8" stop-color="#b3e4fa"/>
      <stop offset="1" stop-color="#99dbf9"/>
    </linearGradient>
    <linearGradient id="linear-gradient14" x1="258.8" y1="82.4" x2="258.8" y2="310.5" gradientTransform="translate(16.9 206.7) rotate(8.7) scale(1 -.8) skewX(2.8)" gradientUnits="userSpaceOnUse">
      <stop offset="0" stop-color="#fff"/>
      <stop offset=".2" stop-color="#f5fbfe"/>
      <stop offset=".4" stop-color="#dcf3fc"/>
      <stop offset=".7" stop-color="#b3e5fa"/>
      <stop offset="1" stop-color="#8dd8f8"/>
    </linearGradient>
    <linearGradient id="linear-gradient15" x1="250.7" y1="79.3" x2="250.7" y2="312.8" gradientTransform="translate(33.8 205.8) rotate(5.7) scale(1 -.8) skewX(1.4)" gradientUnits="userSpaceOnUse">
      <stop offset="0" stop-color="#fff"/>
      <stop offset=".1" stop-color="#f5fbfe"/>
      <stop offset=".4" stop-color="#dcf3fc"/>
      <stop offset=".7" stop-color="#b3e5fa"/>
      <stop offset="1" stop-color="#81d4f7"/>
    </linearGradient>
  </defs>
  <g class="st8">
    <g id="Layer_1">
      <rect class="st18" width="600" height="150"/>
      <g class="st17">
        <path class="st9" d="M1,111.9c12.8,13.6,26.7,26.4,41.6,38.1H1v-38.1Z"/>
        <path class="st2" d="M1,108.6c15.2,15,31.8,28.9,49.5,41.4H2.8c-.6-.5-1.2-1-1.8-1.5v-39.8Z"/>
        <path class="st1" d="M1,105.6c17.9,16.4,37.3,31.4,58.2,44.4H9.8c-2.9-2.2-5.8-4.5-8.8-6.8v-37.6Z"/>
        <path class="st12" d="M1,102.7c20.9,17.8,43.6,33.9,67.8,47.3H17.1c-5.4-3.8-10.8-7.6-16.1-11.5v-35.8Z"/>
        <path class="st5" d="M1,99.9c24.3,19.4,50.6,36.5,78.7,50.1H25c-8.1-5.1-16.1-10.4-24-15.9,0,0,0-34.2,0-34.2Z"/>
        <path class="st4" d="M1,97.2c28.2,21.2,58.9,39.3,91.3,52.8h-58.8c-11-6.2-21.8-12.9-32.5-19.8v-33Z"/>
        <path class="st10" d="M355.4,150c2.7-.5,5.5-1,8.2-1.4,46-8.1,90.9-8.6,130.8,1.4h-139,0Z"/>
        <path class="st16" d="M1,94.6c33.1,23.3,69.1,42.6,106.9,55.4H42.8c-14.1-7.2-28.1-15.1-41.8-23.5v-31.9h0Z"/>
        <path class="st11" d="M281.8,150c28.4-5.1,57-12.1,85.2-19.2,68.6-17.1,136.1-18.7,189.1,9.2,6,3.1,11.8,6.5,17.5,10h-291.9,0Z"/>
        <path class="st6" d="M1,92.1c39.7,26.2,82.9,47,127.9,57.9H53.2c-17.7-8.1-35-17.2-52.2-26.9v-31Z"/>
        <path class="st13" d="M600,150H206.1c53.5-2.9,108.6-19.1,162.6-36.6,68.9-22.3,137.8-30.5,193.2-5.7,13.1,5.9,25.7,12.8,38.1,20.3v22h0Z"/>
        <path class="st14" d="M1,89.5c49.1,30.2,102.4,52.8,157.4,59.2,4.7.6,9.5,1,14.2,1.2h-107.8c-21.7-8.7-43-19-63.9-30.2,0,0,0-30.3,0-30.3Z"/>
        <path class="st3" d="M1,87c50,28.8,103.6,50.1,158.2,54.9,68.2,6,139.8-17.8,209.5-45.4,69-27.4,138.9-42.8,196.4-21.2,11.9,4.5,23.5,9.9,34.9,15.8v58.8h-100.7c-39.2-8.1-81.2-6.4-123.9,0H78.7c-26.3-9.1-52.2-20.5-77.7-33.2v-29.8h0Z"/>
        <path class="st7" d="M1,84.5c50.7,27.3,104.2,47.2,158.2,50.5,68.3,4.2,138.9-22.4,207.7-54.6,69-32.2,139.1-55.3,198.9-37.5,11.7,3.5,23,7.9,34.2,13v94h-8.1c-14.9-7.4-29.9-13.9-45-19.2-59.9-20.9-127.5-10.6-194.8,7.1-16.3,4.3-32.7,8.4-49.2,12H95.8c-32-9-63.7-21.7-94.8-36.2v-29.3h0Z"/>
        <path class="st0" d="M1,82c51,25.5,104.2,44,157.3,46.1,68,2.5,137.4-26.5,205-62.7C431.9,28.5,501.5-2.5,563.8,10.8c12.3,2.7,24.3,6.5,36.2,11.1v94.8c-15.8-7.2-31.8-13.1-47.8-17.6-62-17.4-130.2-.3-197.7,22.3-35.2,11.8-70.8,22.2-106.3,28.5H119.5c-40-7.9-79.6-22.2-118.5-39v-29.1Z"/>
      </g>
      <path class="st15" d="M538.7,28.2c.9-2.1,1.6-5.4,1.7-7.3,0-1.9-.8-1.8-1.8.4-.9,2.1-1.7,5.4-1.6,7.3,0,1.9.9,1.8,1.8-.4ZM538.6,11.5c-1.1,2.3-2.1,6-2.1,8.1,0,2.1,1,2,2-.4,1.2-2.4,2.1-6,2.1-8.1,0-2.1-.9-2-2.1.4ZM539.1,36.3c.8-1.9,1.3-4.9,1.3-6.6,0-1.8-.8-1.6-1.6.3-.8,1.9-1.4,4.9-1.3,6.7,0,1.8.8,1.6,1.6-.3h0ZM536.6.2c.2.5.6.5,1.1,0h-1.1ZM539.3.2c-.1.2-.2.3-.3.5-1.4,2.6-2.6,6.6-2.6,9,0,2.4,1,2.2,2.3-.4,1.3-2.6,2.5-6.6,2.6-8.9h0c0-.1-2-.1-2-.1ZM539.6,43.7c.7-1.8,1.1-4.4,1-6-.1-1.6-.8-1.5-1.4.3-.8,1.7-1.1,4.4-1,6,.1,1.6.8,1.5,1.4-.3h0ZM514.3,37c1.4-3.3,2.3-8.4,2.1-11.4-.2-3-1.5-2.7-3,.6-1.4,3.3-2.4,8.4-2.1,11.4.3,3,1.6,2.7,3-.6ZM523.4,89c.4-2,.3-5.1,0-6.9-.4-1.8-1.2-1.6-1.6.4-.4,2-.4,5.2,0,6.9.4,1.8,1.2,1.6,1.5-.4h0ZM525.5,96.6c.3-1.8.2-4.6-.2-6.3-.4-1.6-1-1.5-1.4.4-.3,1.8-.2,4.6.2,6.3.5,1.6,1.1,1.5,1.4-.4h0ZM514.6,39.8c-1.2,3-1.9,7.6-1.4,10.3.4,2.7,1.5,2.5,2.6-.5,1.1-3,1.7-7.6,1.5-10.3-.3-2.7-1.4-2.5-2.6.5h0ZM510.5.2c-1,3-1.6,6.1-1.6,8.2,0,3.6,1.8,3.3,3.9-.7,1.1-2.1,2.2-4.9,2.9-7.5h-5.2ZM521.4,80.6c.5-2.2.6-5.7.2-7.7-.5-2-1.2-1.8-1.8.4-.6,2.2-.7,5.7-.2,7.7.4,2,1.2,1.8,1.8-.4h0ZM517.5,60.9c.9-2.7,1.3-6.9.9-9.3-.3-2.4-1.4-2.2-2.3.5-1,2.7-1.3,6.9-.9,9.4.5,2.4,1.5,2.2,2.3-.5h0ZM519.9,62.8c-.4-2.2-1.3-2-2,.5-.8,2.5-1,6.3-.5,8.5.4,2.2,1.4,2,2-.5.6-2.5.9-6.2.5-8.5h0ZM513.3,23.1c1.6-3.6,3.1-9.3,3-12.5,0-3.3-1.5-3-3.4.6-1.8,3.6-3.1,9.2-3,12.6.2,3.3,1.7,3,3.4-.6h0ZM478.3.2c-.1,1.1-.2,2.1-.1,3,.2,5,2.9,4.6,5.9-1,.3-.6.7-1.3,1-2h-6.8ZM494.5,76.1c1-3.8,1.1-9.7.5-13.1-.7-3.4-2.3-3.1-3.4.7-1.1,3.8-1.3,9.7-.4,13.1.9,3.4,2.3,3.1,3.3-.8h0ZM490.9,60.2c1.3-4.2,1.9-10.6,1.4-14.4-.7-3.7-2.4-3.4-3.9.8-1.6,4.2-2.1,10.6-1.3,14.4.9,3.8,2.4,3.4,3.8-.8h0ZM485.9,27.6c-2,4.6-3.1,11.7-2.5,15.9.6,4.2,2.6,3.8,4.4-.9,1.7-4.6,2.9-11.7,2.6-15.8-.4-4.1-2.4-3.8-4.5.8h0ZM485.4,23.4c2.4-5.1,4.1-12.8,4-17.4-.1-4.5-2.5-4.1-5.2.9-2.7,5-4.4,12.8-3.9,17.4.5,4.6,2.7,4.1,5.1-.9ZM498.4,90.5c.7-3.5.6-8.8-.2-11.9-.7-3.1-2.1-2.8-2.9.7-.8,3.5-.7,8.8.3,11.9,1,3.1,2.2,2.8,2.9-.7h0ZM521.3,145.9c-.8-1.7-1.4-1.5-1.3.4,0,1,.3,2.3.6,3.5h1.9c-.3-1.4-.8-2.9-1.3-3.9ZM502.6,103.6c.4-3.2.1-8-.7-10.8-.9-2.8-2-2.5-2.5.6-.6,3.2-.2,8,.8,10.8,1,2.8,2.1,2.5,2.5-.7h0ZM507.7,117.8c-.2,2.6.4,6.6,1.4,8.9.9,2.3,1.8,2.1,1.9-.6,0-2.6-.5-6.6-1.4-8.9-.9-2.3-1.8-2.1-1.9.5h0ZM519.2,144.6c0-2.1-.8-5.4-1.6-7.3-.9-1.9-1.5-1.7-1.5.5,0,2.1.8,5.4,1.7,7.3s1.6,1.7,1.5-.5h0ZM506.8,115.4c.2-2.9-.3-7.2-1.1-9.8-.9-2.5-1.9-2.3-2.2.6-.4,2.9.2,7.2,1.2,9.8,1,2.5,2,2.3,2.2-.6ZM515.2,135.8c0-2.4-.7-6-1.6-8-.9-2.1-1.6-1.8-1.7.5,0,2.4.6,6,1.6,8,.9,2.1,1.7,1.9,1.7-.5h0ZM467.6,81.7c-1.2,4.9-.7,12.3.9,16.6,1.6,4.3,3.4,3.9,4.3-1,.8-4.9.5-12.3-.8-16.6-1.3-4.3-3.3-3.8-4.4,1ZM474.3,101.3c-.7,4.4.3,11.2,1.9,15.1,1.7,3.9,3.3,3.5,3.6-1,.4-4.5-.4-11.2-1.8-15.1-1.4-3.9-3.1-3.5-3.7.9ZM456.7,36.4c-2.4,5.8-3.3,14.7-2,20,1.3,5.2,3.9,4.7,5.8-1.2,2-5.8,3-14.7,2.1-19.9-.9-5.1-3.6-4.6-5.9,1.1h0ZM461.6,60.1c-1.7,5.3-1.8,13.5-.3,18.2,1.5,4.8,3.7,4.3,5-1.1,1.4-5.4,1.6-13.5.5-18.2-1.1-4.7-3.4-4.2-5.1,1.1h0ZM455.8,31.1c2.8-6.4,4.7-16.1,4.3-21.8-.6-5.6-3.7-5.1-7,1.2-3.4,6.3-5.1,16.1-4.1,21.8,1,5.7,4,5.2,6.8-1.3h0ZM444.8.2c-.3,2.1-.4,4.1-.3,5.8.7,6.2,4.1,5.7,8-1.3.8-1.4,1.5-2.9,2.2-4.5,0,0-9.9,0-9.9,0ZM487.2,132c0-4.1-1-10.2-2.5-13.7-1.5-3.5-2.9-3.2-3.2.9-.3,4,.9,10.2,2.6,13.8,1.7,3.6,3.1,3.2,3.1-.9h0ZM494.5,147c-.2-3.7-1.6-9.2-3-12.5-1.6-3.2-2.8-2.8-2.8.8,0,3.7,1.4,9.3,3.1,12.5.5,1,1,1.6,1.4,2h.9c.3-.4.5-1.3.4-2.8h0ZM498.5,149.3c-1.5-2.8-2.5-2.6-2.4.5h2.7c0-.2-.2-.4-.3-.5ZM442.4,112.5c2.5,5.5,5,4.8,5.6-1.4.7-6.2-.3-15.5-2.3-20.9-2-5.3-4.6-4.8-5.8,1.3-1.2,6.1,0,15.5,2.5,20.9h0ZM430.6,64.6c-2,6.7-1.6,16.9.6,22.9,2.3,5.9,5.2,5.3,6.6-1.5,1.4-6.7,1.3-16.9-.4-22.8-1.7-5.8-4.8-5.2-6.8,1.4ZM465.6,137.5c-2.3-4.4-4.2-3.9-4.2,1.2,0,3.1.9,7.3,2.2,11.1h6c-.9-4.4-2.4-9.2-4.1-12.3ZM422.9,35.2c-3.1,7.3-3.9,18.4-1.9,24.9,2,6.5,5.4,5.8,7.9-1.6,2.4-7.3,3.5-18.5,2.2-24.8-1.3-6.4-4.9-5.7-8.1,1.5h0ZM405.7.2c1.3,3.9,4.2,3.8,7.6,0h-7.6ZM419.2.2c-.6.9-1.3,1.9-2,3-4.3,7.9-6.6,20-5,27.1,1.6,7.1,5.7,6.3,9.3-1.7,3.7-8,6.1-20,5.3-27,0-.5-.1-1-.2-1.4h-7.4,0ZM459,134.1c0-5.6-1.6-14.2-3.8-19.1-2.2-4.9-4.5-4.3-4.9,1.3-.4,5.6,1.4,14.2,4,19.1,2.6,5,4.7,4.4,4.7-1.3h0ZM436.1,149.8h6.3c-.3-.5-.5-1-.8-1.5-3.3-5.5-5.8-4.9-5.5,1.5ZM392.4,57.8c-2.8,8.3-2.3,21.1.9,28.4,3.2,7.4,7.2,6.5,9.1-2,1.9-8.4,1.8-21-.5-28.3-2.3-7.2-6.6-6.4-9.5,1.9ZM381.9,21.6c-4.5,9-5.6,22.8-2.9,30.8,2.8,8,7.5,7.1,11-2.1,3.4-9.1,5-22.8,3.3-30.7-1.8-7.8-7-6.9-11.4,2h0ZM367.2.2c-1.2,5.8-1.4,11.4-.4,15.6,2.2,8.7,7.9,7.6,13.2-2.3,2.1-3.9,3.9-8.6,5.3-13.3h-18.1ZM432.6,144.1c-.2-7.1-2.9-17.8-5.9-23.9-3.1-6.1-6.1-5.4-6.6,1.7-.5,7.1,2.4,17.8,6.2,24,1.4,2.2,2.6,3.5,3.6,4h1.5c.9-.6,1.4-2.5,1.3-5.7h0ZM409.3,117.3c3.6,6.8,6.8,6,7.6-1.8.7-7.8-.8-19.4-3.6-26.1-2.8-6.6-6.4-5.9-7.9,1.8-1.5,7.7.3,19.4,3.9,26.2h0ZM344.1,37c-4.6,10.2-4.5,25.9-.3,34.9,4.2,9.1,9.8,7.9,13-2.6,3.1-10.4,3.7-25.9.9-34.8-2.9-8.8-9-7.7-13.6,2.5ZM364.9,110c4.8,8.4,9.4,7.3,10.6-2.4,1.3-9.6-.3-24-3.8-32.2-3.5-8.1-8.6-7.1-11.1,2.3-2.5,9.5-.4,24,4.3,32.3h0ZM327.6.2c-4.2,10.3-5.2,22.7-2.5,30.6,3.6,9.7,10.4,8.4,15.9-2.9,3.8-8,6.6-18.7,7.2-27.7h-20.6,0ZM408.7,148.3c-4.4-6.8-7.8-6-7.5,1.6h8.4c-.3-.6-.6-1.1-1-1.6ZM396.5,143.1c-.2-8.9-3.5-22.2-7.6-29.8-4.1-7.5-8.3-6.6-9.1,2.2-.8,8.8,2.9,22.2,8.1,29.9,1.5,2.2,2.9,3.7,4.1,4.5h3.3c.9-1.1,1.4-3.3,1.3-6.8ZM282.5.2c-7.8,12.4-9.5,31.3-4.3,42.1,5.2,10.9,13.5,9.2,19.4-3.6,5.1-11.4,7.8-27.7,6.1-38.5h-21.1ZM260.1.2c2.1,1.1,4.6,1.1,7.2,0h-7.2ZM302.1,48.8c-4.7,11.6-3.2,29.3,2.6,39.4,6,10.2,12.7,8.7,15.5-3.3,2.9-11.8,2.3-29.4-1.8-39.2-4.1-9.8-11.7-8.4-16.4,3.1h0ZM363.2,134.4c-5.7-8.5-10.6-7.3-10.7,2.6,0,3.8.8,8.2,2.2,12.8h15.9c-2.2-5.8-4.8-11.4-7.5-15.5h0ZM325.6,94.5c-2.1,10.8,1.9,27.3,8.4,36.7,6.7,9.5,12,8.1,12.5-3,.5-11-2.7-27.3-7.7-36.5-5-9.1-11.1-7.9-13.2,2.8ZM253.6,56.8c-5.1,13.1-2.1,33,5.9,44.2,8.2,11.4,16.2,9.5,18.9-4.1,2.6-13.4.9-33.1-4.7-44.1-5.7-10.8-15-9.1-20.1,3.9h0ZM301.6,104.1c-6.6-10.2-14.1-8.7-15.9,3.5-1.8,12.3,4.4,30.9,13.2,41.4.2.3.5.6.7.8h13.9c.2-1.3.3-2.8.2-4.5-.4-12.5-5.4-30.9-12.1-41.3h0ZM322,149.8h10.4c-5.2-5.5-9.3-5.4-10.4,0ZM228.1.2c-.7.9-1.4,1.9-2.1,3-9,14-9.8,35.1-2.7,47,7.3,12,17.5,9.9,24-4.6,6.1-13.8,8.4-33.5,4.5-45.3h-23.8,0ZM257.7,112.2c-8.7-11.3-17.8-9.4-19.6,4.4-1.2,9.5,2.6,22.3,8.7,33.2h26.5c-2.6-13-8.6-28.3-15.6-37.6h0ZM195.9,60.6c-5.9,14.8-1.2,37,9.4,49.4,10.8,12.6,20.6,10.2,23.4-5.2,2.7-15.2-.1-37.1-7.7-49.2-7.5-11.9-19.2-9.7-25.1,5h0ZM159,.2c-.4.5-.8,1-1.1,1.5-9.8,14.2-10.1,35.2-1.6,46.8,8.7,11.7,20.4,9.2,27.6-5.4,6.3-13.1,8.5-31.2,4.6-42.9h-29.6,0ZM126.6.2c4.4,3.4,10,3.3,15.6,0h-15.6ZM85.9,12.9c-9.1,13.1-8,32,1.2,42.2,9.5,10.2,21.6,7.6,28.4-5.8,6.6-13.3,7.2-32.1.2-42.1-7-9.8-20.7-7.3-29.8,5.8ZM45.6.2c.6,3.6,2,6.8,4.2,9.3,7.6,8.6,20.1,6.1,28.9-5.7.9-1.2,1.7-2.4,2.4-3.6h-35.5ZM124.6,60c-6.6,15.1-1.1,37.1,10.9,49.1,12.3,12.2,23.7,9.5,27.1-6.1,3.3-15.3,0-37.2-9-49-8.8-11.6-22.4-9-29.1,5.9h0ZM179.9,121.4c-1,8.3,1.7,18.6,6.6,28.5h35.9c-4-12.5-10.5-25.6-17.9-34-11-12.4-22.5-10-24.5,5.6h0ZM52.1,72.7c-6,13.9.5,33.7,13.2,44.2,12.9,10.7,24.8,7.7,28-6.5,3.1-14.1-1.3-33.8-11.4-44.1-9.9-10.2-23.8-7.3-29.8,6.4h0ZM13,69.6c10.5,8.9,22.9,6,29-6.4,6-12.4,5-29.4-3.3-38.1-8.2-8.6-22.2-5.8-30.4,6.3C.1,43.7,2.7,60.8,13,69.6ZM1.4.2v21C5.5,14.5,7.2,6.7,6.2.2H1.4ZM134.4,115c-12.4-12.1-25.9-9.2-28.5,6.6-1.3,8.3,1.4,18.6,6.7,28.3h42.1c-4.2-12.9-11.5-26.4-20.2-34.8ZM63.2,128.7c-13.4-10.6-27.2-7.4-29.3,7.2-.6,4.3.1,9.1,1.9,14h44.6c-4.5-8.2-10.5-15.9-17.2-21.2h0ZM1.4,83.4v54.3c9.5,2.5,17-1.7,19-11.7,2.5-13-3.4-30.9-14.7-39.9-1.4-1.1-2.8-2-4.3-2.8Z"/>
    </g>
  </g>
</svg>