<?xml version="1.0" encoding="UTF-8"?>
<svg id="Layer_1" xmlns="http://www.w3.org/2000/svg" version="1.1" viewBox="0 0 24 24">
  <!-- Generator: Adobe Illustrator 29.0.1, SVG Export Plug-In . SVG Version: 2.1.0 Build 192)  -->
  <defs>
    <style>
      .st0 {
        fill-rule: evenodd;
      }

      .st0, .st1 {
        fill: #069;
      }
    </style>
  </defs>
  <path class="st1" d="M6.2,9.4c.9.3,2.3.7,4,.8.2,3.5-.7,6.7-1.2,7.8-.2.5,0,1.1.4,1.3s1.1,0,1.3-.4c.4-.9,1-2.6,1.3-4.7.3,2.1.8,3.8,1.3,4.7s.8.7,1.3.4c.5-.2.7-.8.4-1.3-.5-1.1-1.4-4.2-1.2-7.7,1.3-.1,2.7-.4,4-.9.5-.2.8-.8.6-1.3-.2-.5-.8-.8-1.3-.6-4.1,1.5-8.6.6-10.3,0-.5-.2-1.1,0-1.3.6-.2.5,0,1.1.6,1.3Z"/>
  <path class="st1" d="M12,8c1,0,1.8-.8,1.8-1.8s-.8-1.8-1.8-1.8-1.8.8-1.8,1.8.8,1.8,1.8,1.8Z"/>
  <path class="st0" d="M24,12c0,6.6-5.4,12-12,12S0,18.6,0,12,5.4,0,12,0s12,5.4,12,12ZM22,12c0,5.5-4.5,10-10,10S2,17.5,2,12,6.5,2,12,2s10,4.5,10,10Z"/>
</svg>