<?xml version="1.0" encoding="UTF-8"?>
<svg id="meteor-icon-kit__solid-universal-access" xmlns="http://www.w3.org/2000/svg" version="1.1" xmlns:xlink="http://www.w3.org/1999/xlink" viewBox="0 0 800 800">
  <!-- Generator: Adobe Illustrator 29.0.1, SVG Export Plug-In . SVG Version: 2.1.0 Build 192)  -->
  <defs>
    <style>
      .st0, .st1 {
        fill: #069;
      }

      .st0, .st2 {
        fill-rule: evenodd;
      }

      .st3 {
        mask: url(#mask);
      }

      .st2 {
        fill: #fff;
      }
    </style>
    <mask id="mask" x="-66.7" y="-66.7" width="933.3" height="933.3" maskUnits="userSpaceOnUse">
      <g id="path-1-inside-1_525_174">
        <path class="st2" d="M400,800c220.9,0,400-179.1,400-400S620.9,0,400,0,0,179.1,0,400s179.1,400,400,400ZM400,266.7c32.2,0,58.3-26.1,58.3-58.3s-26.1-58.3-58.3-58.3-58.3,26.1-58.3,58.3,26.1,58.3,58.3,58.3ZM185.3,271.9c6.3-17.3,25.4-26.2,42.7-19.9,56.6,20.6,207,49.8,343.9,0,17.3-6.3,36.4,2.6,42.7,19.9,6.3,17.3-2.6,36.4-19.9,42.7-44.5,16.2-89.8,25.1-133.4,29-7,117.9,22.1,222,40.2,258.1,8.2,16.5,1.6,36.5-14.9,44.7-16.5,8.2-36.5,1.6-44.7-14.9-14.8-29.6-32.5-86.2-41.9-156-9.3,69.9-27.1,126.4-41.9,156s-28.3,23.1-44.7,14.9c-16.5-8.2-23.1-28.3-14.9-44.7,18.1-36.2,47.3-140.7,40.1-259-57.4-5.7-105-17.8-133.4-28.1-17.3-6.3-26.2-25.4-19.9-42.7Z"/>
      </g>
    </mask>
  </defs>
  <path class="st0" d="M400,800c220.9,0,400-179.1,400-400S620.9,0,400,0,0,179.1,0,400s179.1,400,400,400ZM400,266.7c32.2,0,58.3-26.1,58.3-58.3s-26.1-58.3-58.3-58.3-58.3,26.1-58.3,58.3,26.1,58.3,58.3,58.3ZM185.3,271.9c6.3-17.3,25.4-26.2,42.7-19.9,56.6,20.6,207,49.8,343.9,0,17.3-6.3,36.4,2.6,42.7,19.9,6.3,17.3-2.6,36.4-19.9,42.7-44.5,16.2-89.8,25.1-133.4,29-7,117.9,22.1,222,40.2,258.1,8.2,16.5,1.6,36.5-14.9,44.7-16.5,8.2-36.5,1.6-44.7-14.9-14.8-29.6-32.5-86.2-41.9-156-9.3,69.9-27.1,126.4-41.9,156s-28.3,23.1-44.7,14.9c-16.5-8.2-23.1-28.3-14.9-44.7,18.1-36.2,47.3-140.7,40.1-259-57.4-5.7-105-17.8-133.4-28.1-17.3-6.3-26.2-25.4-19.9-42.7Z"/>
  <g class="st3">
    <path class="st1" d="M228.1,252l22.8-62.7h0l-22.8,62.7ZM185.3,271.9l-62.7-22.8h0l62.7,22.8ZM571.9,252l-22.8-62.7h0l22.8,62.7ZM614.7,271.9l-62.7,22.8,62.7-22.8ZM594.7,314.7l-22.8-62.7h0l22.8,62.7ZM461.3,343.6l-6-66.4-57.2,5.1-3.4,57.3,66.5,3.9ZM501.5,601.8l59.6-29.8h0l-59.6,29.8ZM486.6,646.5l-29.8-59.6h0l29.8,59.6ZM400,475.5l66.1-8.8h-132.2l66.1,8.8ZM313.4,646.5l29.8-59.6h0l-29.8,59.6ZM298.5,601.8l-59.6-29.8h0l59.6,29.8ZM338.7,342.8l66.5-4-3.4-56.7-56.5-5.6-6.6,66.3ZM205.3,314.7l-22.8,62.7h0l22.8-62.7ZM733.3,400c0,184.1-149.2,333.3-333.3,333.3v133.3c257.7,0,466.7-208.9,466.7-466.7h-133.3ZM400,66.7c184.1,0,333.3,149.2,333.3,333.3h133.3c0-257.7-208.9-466.7-466.7-466.7V66.7ZM66.7,400c0-184.1,149.2-333.3,333.3-333.3V-66.7c-257.7,0-466.7,208.9-466.7,466.7H66.7ZM400,733.3c-184.1,0-333.3-149.2-333.3-333.3H-66.7c0,257.7,208.9,466.7,466.7,466.7v-133.3ZM391.7,208.3c0-4.6,3.7-8.3,8.3-8.3v133.3c69,0,125-56,125-125h-133.3ZM400,216.7c-4.6,0-8.3-3.7-8.3-8.3h133.3c0-69-56-125-125-125v133.3ZM408.3,208.3c0,4.6-3.7,8.3-8.3,8.3V83.3c-69,0-125,56-125,125h133.3ZM400,200c4.6,0,8.3,3.7,8.3,8.3h-133.3c0,69,56,125,125,125v-133.3ZM250.8,189.4c-51.9-18.9-109.3,7.9-128.2,59.8l125.3,45.6c-6.3,17.3-25.4,26.2-42.7,19.9l45.6-125.3ZM549.2,189.4c-117.4,42.7-250.8,17.3-298.3,0l-45.6,125.3c65.6,23.9,233,56.9,389.5,0l-45.6-125.3ZM677.3,249.2c-18.9-51.9-76.3-78.7-128.2-59.8l45.6,125.3c-17.3,6.3-36.4-2.6-42.7-19.9l125.3-45.6ZM617.5,377.3c51.9-18.9,78.7-76.3,59.8-128.2l-125.3,45.6c-6.3-17.3,2.6-36.4,19.9-42.7l45.6,125.3ZM467.3,410c48.4-4.3,99.5-14.3,150.3-32.7l-45.6-125.3c-38.2,13.9-77.8,21.8-116.6,25.2l11.9,132.8ZM561.1,571.9c-12.3-24.6-39.6-116.9-33.3-224.4l-133.1-7.9c-7.6,128.3,23.3,244.2,47.1,291.9l119.3-59.6ZM516.4,706.1c49.4-24.7,69.4-84.8,44.7-134.2l-119.3,59.6c-8.2-16.5-1.6-36.5,14.9-44.7l59.6,119.3ZM382.2,661.4c24.7,49.4,84.8,69.4,134.2,44.7l-59.6-119.3c16.5-8.2,36.5-1.6,44.7,14.9l-119.3,59.6ZM333.9,484.4c10,74.8,29.3,139,48.3,177l119.3-59.6c-10.6-21.1-26.8-70.1-35.4-135l-132.2,17.6ZM417.8,661.4c19-38,38.3-102.2,48.3-177l-132.2-17.6c-8.6,64.9-24.8,113.9-35.4,135l119.3,59.6ZM283.6,706.1c49.4,24.7,109.5,4.7,134.2-44.7l-119.3-59.6c8.2-16.5,28.3-23.1,44.7-14.9l-59.6,119.3ZM238.9,571.9c-24.7,49.4-4.7,109.5,44.7,134.2l59.6-119.3c16.5,8.2,23.1,28.3,14.9,44.7l-119.3-59.6ZM272.1,346.8c6.5,107.8-20.9,200.5-33.2,225.2l119.3,59.6c23.9-47.7,54.8-164.1,47.1-292.8l-133.1,8ZM182.5,377.3c34.1,12.4,87.1,25.6,149.6,31.8l13.2-132.7c-52.4-5.2-94.5-16.2-117.2-24.4l-45.6,125.3ZM122.7,249.2c-18.9,51.9,7.9,109.3,59.8,128.2l45.6-125.3c17.3,6.3,26.2,25.4,19.9,42.7l-125.3-45.6Z"/>
  </g>
</svg>